<svg width="40" height="40" viewBox="0 0 40 40" fill="none" xmlns="http://www.w3.org/2000/svg">
<rect width="40" height="40" fill="white"/>
<path d="M32.937 7.304H27.19V6.348C27.19 5.003 26.767 4.028 25.912 3.433C25.308 3.043 24.559 2.845 23.688 2.845H17.247C17.242 2.845 17.238 2.848 17.233 2.848C17.228 2.848 17.224 2.845 17.219 2.845H16.31C14.051 2.845 12.807 4.089 12.807 6.348V7.304H7.06299C6.86408 7.304 6.67331 7.38302 6.53266 7.52367C6.39201 7.66432 6.31299 7.85509 6.31299 8.054C6.31299 8.25291 6.39201 8.44368 6.53266 8.58433C6.67331 8.72498 6.86408 8.804 7.06299 8.804H7.70999L9.65599 34.589C9.65599 36.22 10.601 37.155 12.25 37.155H27.711C29.322 37.155 30.268 36.225 30.303 34.645L32.25 8.804H32.936C33.0345 8.80407 33.132 8.78473 33.223 8.7471C33.3141 8.70947 33.3968 8.65428 33.4665 8.58468C33.5362 8.51509 33.5915 8.43244 33.6292 8.34148C33.667 8.25051 33.6864 8.15299 33.6865 8.0545C33.6866 7.95601 33.6672 7.85847 33.6296 7.76745C33.592 7.67643 33.5368 7.59372 33.4672 7.52402C33.3976 7.45433 33.3149 7.39903 33.224 7.36128C33.133 7.32353 33.0355 7.30407 32.937 7.304V7.304ZM30.635 10.28H9.32599L9.21499 8.804H30.746L30.635 10.28ZM14.308 6.348C14.308 4.925 14.888 4.345 16.311 4.345H23.689C24.267 4.345 24.742 4.462 25.078 4.678C25.491 4.965 25.691 5.511 25.691 6.348V7.304H14.308V6.348V6.348ZM28.806 34.572C28.787 35.382 28.511 35.655 27.711 35.655H12.25C11.432 35.655 11.156 35.386 11.154 34.532L9.43899 11.779H30.521L28.806 34.572V34.572Z" fill="#111111"/>
<path d="M17.401 12.969C17.3026 12.9725 17.2059 12.9953 17.1163 13.0362C17.0268 13.0771 16.9462 13.1353 16.8791 13.2073C16.8121 13.2794 16.7599 13.364 16.7255 13.4562C16.6912 13.5485 16.6754 13.6466 16.679 13.745L17.383 33.099C17.39 33.2929 17.4718 33.4765 17.6113 33.6113C17.7507 33.7461 17.937 33.8216 18.131 33.822L18.159 33.821C18.2574 33.8175 18.3541 33.7947 18.4436 33.7538C18.5332 33.7129 18.6138 33.6547 18.6809 33.5827C18.7479 33.5106 18.8001 33.426 18.8344 33.3338C18.8688 33.2415 18.8846 33.1434 18.881 33.045L18.178 13.69C18.163 13.276 17.825 12.933 17.401 12.969V12.969ZM12.752 12.97C12.5536 12.9838 12.3689 13.0759 12.2384 13.2259C12.1079 13.3759 12.0423 13.5716 12.056 13.77L13.385 33.124C13.3979 33.3133 13.4822 33.4907 13.6209 33.6203C13.7595 33.7498 13.9422 33.8219 14.132 33.822L14.185 33.82C14.3834 33.8062 14.5681 33.7141 14.6986 33.5641C14.8291 33.4141 14.8947 33.2184 14.881 33.02L13.552 13.666C13.5366 13.4682 13.4441 13.2844 13.2945 13.1542C13.1448 13.024 12.95 12.9579 12.752 12.97V12.97ZM22.536 12.969C22.117 12.929 21.774 13.277 21.76 13.691L21.055 33.045C21.0513 33.1434 21.067 33.2416 21.1013 33.3339C21.1356 33.4262 21.1877 33.5109 21.2548 33.583C21.3219 33.6551 21.4026 33.7132 21.4922 33.754C21.5818 33.7949 21.6786 33.8177 21.777 33.821L21.805 33.822C21.999 33.8216 22.1852 33.7461 22.3247 33.6113C22.4642 33.4765 22.546 33.2929 22.553 33.099L23.258 13.745C23.2617 13.6466 23.246 13.5484 23.2117 13.4561C23.1774 13.3638 23.1252 13.2792 23.0582 13.2071C22.9911 13.135 22.9104 13.0768 22.8208 13.036C22.7312 12.9951 22.6344 12.9724 22.536 12.969V12.969ZM27.185 12.97C26.9871 12.9581 26.7924 13.0244 26.6428 13.1545C26.4932 13.2847 26.4006 13.4683 26.385 13.666L25.056 33.02C25.0423 33.2184 25.1079 33.4141 25.2384 33.5641C25.3689 33.7141 25.5536 33.8062 25.752 33.82L25.805 33.822C25.9947 33.8217 26.1772 33.7495 26.3159 33.62C26.4545 33.4905 26.5388 33.3133 26.552 33.124L27.881 13.77C27.8947 13.5716 27.8291 13.3759 27.6986 13.2259C27.5681 13.0759 27.3834 12.9838 27.185 12.97V12.97Z" fill="#111111"/>
</svg>
