<svg width="239" height="44" viewBox="0 0 239 44" fill="none" xmlns="http://www.w3.org/2000/svg">
<g clip-path="url(#clip0_16_361)">
<path d="M18.6317 43.0535H21.685L40.3231 0.946503H37.2699L20.1615 39.6384L3.05961 0.946503H0L18.6317 43.0535Z" fill="#1D1D1B"/>
<path d="M46.2638 43.0471H48.9728V12.8547H46.2638V43.0471ZM46.2638 7.18837H48.9728V0.933716H46.2638V7.18837Z" fill="#1D1D1B"/>
<path d="M97.3976 27.0587C95.804 36.2041 88.7542 41.6209 79.4606 41.6209C66.5911 41.6209 59.8217 32.5395 59.8217 21.9872C59.8217 11.4349 67.4708 2.34708 79.4606 2.34708C87.3391 2.34708 94.6821 6.05638 96.6709 14.1401H99.3672C97.2573 4.77092 89.5573 -0.0127869 79.4415 -0.0127869C64.0415 -0.0127869 57.1318 11.7802 57.1318 21.9872C57.1318 35.9035 66.6931 43.9872 79.4415 43.9872C92.0241 43.9872 99.1377 35.0785 100.081 27.0587H97.3976Z" fill="#1D1D1B"/>
<path d="M109.559 22C109.559 11.9081 116.495 2.35988 129.135 2.35988C141.775 2.35988 148.703 11.9081 148.703 22C148.703 32.0919 141.775 41.6337 129.135 41.6337C116.495 41.6337 109.559 32.0791 109.559 22ZM106.85 22C106.85 30.2564 112.09 44 129.16 44C146.23 44 151.438 30.2564 151.438 22C151.438 13.7436 146.211 0 129.16 0C112.109 0 106.85 13.7372 106.85 22Z" fill="#1D1D1B"/>
<path d="M159.584 43.0535H189.804V40.6936H162.293V0.946503H159.584V43.0535Z" fill="#1D1D1B"/>
<path d="M197.147 22C197.147 11.9145 204.089 2.35988 216.722 2.35988C229.356 2.35988 236.304 11.9145 236.304 22C236.304 32.0855 229.356 41.6337 216.722 41.6337C204.089 41.6337 197.147 32.0791 197.147 22ZM194.451 22C194.451 30.2564 199.684 44 216.722 44C233.76 44 239.032 30.2564 239.032 22C239.032 13.7436 233.805 0 216.722 0C199.639 0 194.451 13.7372 194.451 22Z" fill="#1D1D1B"/>
</g>
<defs>
<clipPath id="clip0_16_361">
<rect width="239" height="44" fill="white"/>
</clipPath>
</defs>
</svg>
