<svg width="1652" height="57" viewBox="0 0 1652 57" fill="none" xmlns="http://www.w3.org/2000/svg">
<g filter="url(#filter0_bd_16_421)">
<path d="M20.756 40L26.7219 3.63636H30.2731L24.3072 40H20.756ZM4.20774 29.9148L4.77592 26.3636H31.9066L31.3384 29.9148H4.20774ZM7.97195 40L13.9379 3.63636H17.489L11.5231 40H7.97195ZM6.33842 17.2727L6.90661 13.7216H34.0373L33.4691 17.2727H6.33842ZM40.7933 3.63636L51.5888 34.2472H52.0149L62.8104 3.63636H67.4268L54.0746 40H49.5291L36.1768 3.63636H40.7933ZM72.5227 40V12.7273H76.7131V40H72.5227ZM74.6534 8.18182C73.8366 8.18182 73.1323 7.90365 72.5405 7.3473C71.9605 6.79096 71.6705 6.12216 71.6705 5.34091C71.6705 4.55966 71.9605 3.89086 72.5405 3.33452C73.1323 2.77817 73.8366 2.5 74.6534 2.5C75.4702 2.5 76.1686 2.77817 76.7486 3.33452C77.3404 3.89086 77.6364 4.55966 77.6364 5.34091C77.6364 6.12216 77.3404 6.79096 76.7486 7.3473C76.1686 7.90365 75.4702 8.18182 74.6534 8.18182ZM95.4675 40.5682C92.9107 40.5682 90.709 39.9645 88.8624 38.7571C87.0158 37.5497 85.5953 35.8866 84.601 33.7678C83.6067 31.6489 83.1096 29.2282 83.1096 26.5057C83.1096 23.7358 83.6185 21.2914 84.6365 19.1726C85.6664 17.0419 87.0987 15.3788 88.9334 14.1832C90.78 12.9759 92.9344 12.3722 95.3965 12.3722C97.3141 12.3722 99.0423 12.7273 100.581 13.4375C102.12 14.1477 103.381 15.142 104.363 16.4205C105.346 17.6989 105.955 19.1903 106.192 20.8949H102.002C101.682 19.652 100.972 18.5511 99.8709 17.5923C98.7819 16.6217 97.3141 16.1364 95.4675 16.1364C93.834 16.1364 92.4017 16.5625 91.1706 17.4148C89.9514 18.2552 88.9985 19.4448 88.312 20.9837C87.6373 22.5107 87.2999 24.304 87.2999 26.3636C87.2999 28.4706 87.6313 30.3054 88.2942 31.8679C88.9689 33.4304 89.9159 34.6437 91.1351 35.5078C92.3662 36.3719 93.8103 36.804 95.4675 36.804C96.5565 36.804 97.5449 36.6146 98.4327 36.2358C99.3205 35.857 100.072 35.3125 100.688 34.6023C101.303 33.892 101.741 33.0398 102.002 32.0455H106.192C105.955 33.6553 105.369 35.1054 104.434 36.3956C103.511 37.674 102.286 38.692 100.759 39.4496C99.2435 40.1953 97.4798 40.5682 95.4675 40.5682ZM123.397 40.5682C120.935 40.5682 118.775 39.9822 116.916 38.8104C115.07 37.6385 113.626 35.9991 112.584 33.892C111.554 31.785 111.039 29.3229 111.039 26.5057C111.039 23.6648 111.554 21.1849 112.584 19.0661C113.626 16.9472 115.07 15.3018 116.916 14.13C118.775 12.9581 120.935 12.3722 123.397 12.3722C125.859 12.3722 128.014 12.9581 129.86 14.13C131.719 15.3018 133.163 16.9472 134.193 19.0661C135.234 21.1849 135.755 23.6648 135.755 26.5057C135.755 29.3229 135.234 31.785 134.193 33.892C133.163 35.9991 131.719 37.6385 129.86 38.8104C128.014 39.9822 125.859 40.5682 123.397 40.5682ZM123.397 36.804C125.267 36.804 126.806 36.3246 128.014 35.3658C129.221 34.407 130.115 33.1463 130.695 31.5838C131.275 30.0213 131.565 28.3286 131.565 26.5057C131.565 24.6828 131.275 22.9841 130.695 21.4098C130.115 19.8355 129.221 18.563 128.014 17.5923C126.806 16.6217 125.267 16.1364 123.397 16.1364C121.527 16.1364 119.988 16.6217 118.781 17.5923C117.573 18.563 116.68 19.8355 116.1 21.4098C115.52 22.9841 115.23 24.6828 115.23 26.5057C115.23 28.3286 115.52 30.0213 116.1 31.5838C116.68 33.1463 117.573 34.407 118.781 35.3658C119.988 36.3246 121.527 36.804 123.397 36.804ZM146.342 3.63636V40H142.152V3.63636H146.342ZM165.096 40.5682C162.634 40.5682 160.474 39.9822 158.616 38.8104C156.769 37.6385 155.325 35.9991 154.283 33.892C153.253 31.785 152.738 29.3229 152.738 26.5057C152.738 23.6648 153.253 21.1849 154.283 19.0661C155.325 16.9472 156.769 15.3018 158.616 14.13C160.474 12.9581 162.634 12.3722 165.096 12.3722C167.559 12.3722 169.713 12.9581 171.559 14.13C173.418 15.3018 174.862 16.9472 175.892 19.0661C176.934 21.1849 177.454 23.6648 177.454 26.5057C177.454 29.3229 176.934 31.785 175.892 33.892C174.862 35.9991 173.418 37.6385 171.559 38.8104C169.713 39.9822 167.559 40.5682 165.096 40.5682ZM165.096 36.804C166.967 36.804 168.506 36.3246 169.713 35.3658C170.92 34.407 171.814 33.1463 172.394 31.5838C172.974 30.0213 173.264 28.3286 173.264 26.5057C173.264 24.6828 172.974 22.9841 172.394 21.4098C171.814 19.8355 170.92 18.563 169.713 17.5923C168.506 16.6217 166.967 16.1364 165.096 16.1364C163.226 16.1364 161.687 16.6217 160.48 17.5923C159.273 18.563 158.379 19.8355 157.799 21.4098C157.219 22.9841 156.929 24.6828 156.929 26.5057C156.929 28.3286 157.219 30.0213 157.799 31.5838C158.379 33.1463 159.273 34.407 160.48 35.3658C161.687 36.3246 163.226 36.804 165.096 36.804ZM204.305 12.7273C204.092 10.928 203.228 9.53125 201.713 8.53693C200.198 7.54261 198.339 7.04545 196.138 7.04545C194.528 7.04545 193.119 7.30587 191.912 7.8267C190.716 8.34754 189.781 9.06368 189.107 9.97514C188.444 10.8866 188.112 11.9223 188.112 13.0824C188.112 14.053 188.343 14.8875 188.805 15.5859C189.278 16.2725 189.882 16.8466 190.616 17.3082C191.35 17.758 192.119 18.1309 192.924 18.4268C193.729 18.7109 194.469 18.9418 195.143 19.1193L198.837 20.1136C199.784 20.3622 200.837 20.7055 201.997 21.1435C203.169 21.5814 204.288 22.1792 205.353 22.9368C206.43 23.6825 207.318 24.6413 208.016 25.8132C208.715 26.9851 209.064 28.4233 209.064 30.1278C209.064 32.0928 208.549 33.8684 207.519 35.4545C206.501 37.0407 205.01 38.3014 203.045 39.2365C201.092 40.1716 198.718 40.6392 195.925 40.6392C193.321 40.6392 191.066 40.219 189.16 39.3786C187.266 38.5381 185.774 37.3662 184.685 35.8629C183.608 34.3596 182.999 32.6136 182.857 30.625H187.402C187.52 31.9981 187.982 33.1345 188.787 34.0341C189.604 34.9219 190.634 35.5848 191.876 36.0227C193.131 36.4489 194.481 36.6619 195.925 36.6619C197.606 36.6619 199.115 36.3897 200.452 35.8452C201.79 35.2888 202.849 34.5194 203.631 33.5369C204.412 32.5426 204.803 31.3826 204.803 30.0568C204.803 28.8494 204.465 27.867 203.79 27.1094C203.116 26.3518 202.228 25.7363 201.127 25.2628C200.026 24.7893 198.837 24.375 197.558 24.0199L193.084 22.7415C190.243 21.9247 187.994 20.7588 186.337 19.2436C184.679 17.7285 183.851 15.7457 183.851 13.2955C183.851 11.2595 184.401 9.4839 185.502 7.96875C186.615 6.44176 188.106 5.25805 189.977 4.41761C191.859 3.56534 193.96 3.1392 196.28 3.1392C198.624 3.1392 200.707 3.55942 202.53 4.39986C204.353 5.22845 205.797 6.36482 206.862 7.80895C207.939 9.25308 208.508 10.8925 208.567 12.7273H204.305ZM227.596 12.7273V16.2784H213.463V12.7273H227.596ZM217.582 6.19318H221.773V32.1875C221.773 33.3712 221.944 34.259 222.287 34.8509C222.643 35.4309 223.092 35.8215 223.637 36.0227C224.193 36.2121 224.779 36.3068 225.395 36.3068C225.856 36.3068 226.235 36.2831 226.531 36.2358C226.827 36.1766 227.064 36.1293 227.241 36.0938L228.094 39.858C227.809 39.9645 227.413 40.071 226.904 40.1776C226.395 40.2959 225.75 40.3551 224.969 40.3551C223.785 40.3551 222.625 40.1006 221.488 39.5916C220.364 39.0826 219.429 38.3073 218.683 37.2656C217.949 36.224 217.582 34.91 217.582 33.3239V6.19318ZM236.599 50.2273C235.888 50.2273 235.255 50.1681 234.699 50.0497C234.142 49.9432 233.758 49.8366 233.545 49.7301L234.61 46.0369C235.628 46.2973 236.528 46.392 237.309 46.321C238.09 46.25 238.782 45.9008 239.386 45.2734C240.002 44.6579 240.564 43.6577 241.073 42.2727L241.854 40.142L231.769 12.7273H236.314L243.843 34.4602H244.127L251.655 12.7273H256.201L244.624 43.9773C244.103 45.3859 243.458 46.5518 242.689 47.4751C241.919 48.4103 241.026 49.1027 240.008 49.5526C239.001 50.0024 237.865 50.2273 236.599 50.2273ZM265.922 3.63636V40H261.732V3.63636H265.922ZM285.032 40.5682C282.404 40.5682 280.137 39.9882 278.231 38.8281C276.337 37.6562 274.875 36.0227 273.846 33.9276C272.828 31.8205 272.319 29.3703 272.319 26.5767C272.319 23.7831 272.828 21.321 273.846 19.1903C274.875 17.0478 276.308 15.3788 278.142 14.1832C279.989 12.9759 282.143 12.3722 284.605 12.3722C286.026 12.3722 287.429 12.6089 288.814 13.0824C290.199 13.5559 291.459 14.3253 292.596 15.3906C293.732 16.4441 294.637 17.8409 295.312 19.581C295.987 21.321 296.324 23.4635 296.324 26.0085V27.7841H275.301V24.1619H292.063C292.063 22.6231 291.755 21.25 291.14 20.0426C290.536 18.8352 289.672 17.8823 288.547 17.1839C287.435 16.4856 286.121 16.1364 284.605 16.1364C282.936 16.1364 281.492 16.5507 280.273 17.3793C279.066 18.196 278.136 19.2614 277.485 20.5753C276.834 21.8892 276.509 23.2978 276.509 24.8011V27.2159C276.509 29.2756 276.864 31.0215 277.574 32.4538C278.296 33.8743 279.297 34.9574 280.575 35.7031C281.853 36.437 283.339 36.804 285.032 36.804C286.132 36.804 287.127 36.6501 288.015 36.3423C288.914 36.0227 289.69 35.5492 290.341 34.9219C290.992 34.2827 291.495 33.4896 291.85 32.5426L295.898 33.679C295.472 35.0521 294.756 36.2595 293.75 37.3011C292.743 38.331 291.501 39.1359 290.021 39.7159C288.541 40.2841 286.878 40.5682 285.032 40.5682ZM358.451 40L364.417 3.63636H367.968L362.002 40H358.451ZM341.903 29.9148L342.471 26.3636H369.602L369.034 29.9148H341.903ZM345.667 40L351.633 3.63636H355.184L349.218 40H345.667ZM344.034 17.2727L344.602 13.7216H371.733L371.164 17.2727H344.034ZM378.489 3.63636L389.284 34.2472H389.71L400.506 3.63636H405.122L391.77 40H387.224L373.872 3.63636H378.489ZM410.218 40V12.7273H414.408V40H410.218ZM412.349 8.18182C411.532 8.18182 410.828 7.90365 410.236 7.3473C409.656 6.79096 409.366 6.12216 409.366 5.34091C409.366 4.55966 409.656 3.89086 410.236 3.33452C410.828 2.77817 411.532 2.5 412.349 2.5C413.165 2.5 413.864 2.77817 414.444 3.33452C415.036 3.89086 415.332 4.55966 415.332 5.34091C415.332 6.12216 415.036 6.79096 414.444 7.3473C413.864 7.90365 413.165 8.18182 412.349 8.18182ZM433.163 40.5682C430.606 40.5682 428.404 39.9645 426.558 38.7571C424.711 37.5497 423.291 35.8866 422.296 33.7678C421.302 31.6489 420.805 29.2282 420.805 26.5057C420.805 23.7358 421.314 21.2914 422.332 19.1726C423.362 17.0419 424.794 15.3788 426.629 14.1832C428.475 12.9759 430.63 12.3722 433.092 12.3722C435.009 12.3722 436.738 12.7273 438.276 13.4375C439.815 14.1477 441.076 15.142 442.058 16.4205C443.041 17.6989 443.651 19.1903 443.887 20.8949H439.697C439.377 19.652 438.667 18.5511 437.566 17.5923C436.477 16.6217 435.009 16.1364 433.163 16.1364C431.529 16.1364 430.097 16.5625 428.866 17.4148C427.647 18.2552 426.694 19.4448 426.007 20.9837C425.333 22.5107 424.995 24.304 424.995 26.3636C424.995 28.4706 425.327 30.3054 425.99 31.8679C426.664 33.4304 427.611 34.6437 428.83 35.5078C430.061 36.3719 431.506 36.804 433.163 36.804C434.252 36.804 435.24 36.6146 436.128 36.2358C437.016 35.857 437.767 35.3125 438.383 34.6023C438.999 33.892 439.436 33.0398 439.697 32.0455H443.887C443.651 33.6553 443.065 35.1054 442.129 36.3956C441.206 37.674 439.981 38.692 438.454 39.4496C436.939 40.1953 435.175 40.5682 433.163 40.5682ZM461.093 40.5682C458.63 40.5682 456.47 39.9822 454.612 38.8104C452.765 37.6385 451.321 35.9991 450.279 33.892C449.249 31.785 448.735 29.3229 448.735 26.5057C448.735 23.6648 449.249 21.1849 450.279 19.0661C451.321 16.9472 452.765 15.3018 454.612 14.13C456.47 12.9581 458.63 12.3722 461.093 12.3722C463.555 12.3722 465.709 12.9581 467.556 14.13C469.414 15.3018 470.858 16.9472 471.888 19.0661C472.93 21.1849 473.45 23.6648 473.45 26.5057C473.45 29.3229 472.93 31.785 471.888 33.892C470.858 35.9991 469.414 37.6385 467.556 38.8104C465.709 39.9822 463.555 40.5682 461.093 40.5682ZM461.093 36.804C462.963 36.804 464.502 36.3246 465.709 35.3658C466.916 34.407 467.81 33.1463 468.39 31.5838C468.97 30.0213 469.26 28.3286 469.26 26.5057C469.26 24.6828 468.97 22.9841 468.39 21.4098C467.81 19.8355 466.916 18.563 465.709 17.5923C464.502 16.6217 462.963 16.1364 461.093 16.1364C459.222 16.1364 457.683 16.6217 456.476 17.5923C455.269 18.563 454.375 19.8355 453.795 21.4098C453.215 22.9841 452.925 24.6828 452.925 26.5057C452.925 28.3286 453.215 30.0213 453.795 31.5838C454.375 33.1463 455.269 34.407 456.476 35.3658C457.683 36.3246 459.222 36.804 461.093 36.804ZM484.037 3.63636V40H479.847V3.63636H484.037ZM502.792 40.5682C500.33 40.5682 498.169 39.9822 496.311 38.8104C494.464 37.6385 493.02 35.9991 491.979 33.892C490.949 31.785 490.434 29.3229 490.434 26.5057C490.434 23.6648 490.949 21.1849 491.979 19.0661C493.02 16.9472 494.464 15.3018 496.311 14.13C498.169 12.9581 500.33 12.3722 502.792 12.3722C505.254 12.3722 507.408 12.9581 509.255 14.13C511.113 15.3018 512.557 16.9472 513.587 19.0661C514.629 21.1849 515.15 23.6648 515.15 26.5057C515.15 29.3229 514.629 31.785 513.587 33.892C512.557 35.9991 511.113 37.6385 509.255 38.8104C507.408 39.9822 505.254 40.5682 502.792 40.5682ZM502.792 36.804C504.662 36.804 506.201 36.3246 507.408 35.3658C508.616 34.407 509.509 33.1463 510.089 31.5838C510.669 30.0213 510.959 28.3286 510.959 26.5057C510.959 24.6828 510.669 22.9841 510.089 21.4098C509.509 19.8355 508.616 18.563 507.408 17.5923C506.201 16.6217 504.662 16.1364 502.792 16.1364C500.921 16.1364 499.383 16.6217 498.175 17.5923C496.968 18.563 496.074 19.8355 495.494 21.4098C494.914 22.9841 494.624 24.6828 494.624 26.5057C494.624 28.3286 494.914 30.0213 495.494 31.5838C496.074 33.1463 496.968 34.407 498.175 35.3658C499.383 36.3246 500.921 36.804 502.792 36.804ZM542.001 12.7273C541.788 10.928 540.924 9.53125 539.408 8.53693C537.893 7.54261 536.035 7.04545 533.833 7.04545C532.223 7.04545 530.815 7.30587 529.607 7.8267C528.412 8.34754 527.477 9.06368 526.802 9.97514C526.139 10.8866 525.808 11.9223 525.808 13.0824C525.808 14.053 526.038 14.8875 526.5 15.5859C526.973 16.2725 527.577 16.8466 528.311 17.3082C529.045 17.758 529.814 18.1309 530.619 18.4268C531.424 18.7109 532.164 18.9418 532.839 19.1193L536.532 20.1136C537.479 20.3622 538.532 20.7055 539.692 21.1435C540.864 21.5814 541.983 22.1792 543.048 22.9368C544.125 23.6825 545.013 24.6413 545.712 25.8132C546.41 26.9851 546.759 28.4233 546.759 30.1278C546.759 32.0928 546.244 33.8684 545.214 35.4545C544.196 37.0407 542.705 38.3014 540.74 39.2365C538.787 40.1716 536.414 40.6392 533.62 40.6392C531.016 40.6392 528.761 40.219 526.855 39.3786C524.961 38.5381 523.47 37.3662 522.381 35.8629C521.304 34.3596 520.694 32.6136 520.552 30.625H525.097C525.216 31.9981 525.677 33.1345 526.482 34.0341C527.299 34.9219 528.329 35.5848 529.572 36.0227C530.826 36.4489 532.176 36.6619 533.62 36.6619C535.301 36.6619 536.81 36.3897 538.148 35.8452C539.485 35.2888 540.545 34.5194 541.326 33.5369C542.107 32.5426 542.498 31.3826 542.498 30.0568C542.498 28.8494 542.161 27.867 541.486 27.1094C540.811 26.3518 539.923 25.7363 538.822 25.2628C537.722 24.7893 536.532 24.375 535.254 24.0199L530.779 22.7415C527.938 21.9247 525.689 20.7588 524.032 19.2436C522.375 17.7285 521.546 15.7457 521.546 13.2955C521.546 11.2595 522.097 9.4839 523.197 7.96875C524.31 6.44176 525.802 5.25805 527.672 4.41761C529.554 3.56534 531.655 3.1392 533.975 3.1392C536.319 3.1392 538.402 3.55942 540.225 4.39986C542.048 5.22845 543.492 6.36482 544.558 7.80895C545.635 9.25308 546.203 10.8925 546.262 12.7273H542.001ZM565.292 12.7273V16.2784H551.158V12.7273H565.292ZM555.278 6.19318H559.468V32.1875C559.468 33.3712 559.64 34.259 559.983 34.8509C560.338 35.4309 560.788 35.8215 561.332 36.0227C561.889 36.2121 562.474 36.3068 563.09 36.3068C563.552 36.3068 563.93 36.2831 564.226 36.2358C564.522 36.1766 564.759 36.1293 564.937 36.0938L565.789 39.858C565.505 39.9645 565.108 40.071 564.599 40.1776C564.09 40.2959 563.445 40.3551 562.664 40.3551C561.48 40.3551 560.32 40.1006 559.184 39.5916C558.059 39.0826 557.124 38.3073 556.378 37.2656C555.644 36.224 555.278 34.91 555.278 33.3239V6.19318ZM574.294 50.2273C573.584 50.2273 572.95 50.1681 572.394 50.0497C571.838 49.9432 571.453 49.8366 571.24 49.7301L572.305 46.0369C573.323 46.2973 574.223 46.392 575.004 46.321C575.785 46.25 576.478 45.9008 577.081 45.2734C577.697 44.6579 578.259 43.6577 578.768 42.2727L579.55 40.142L569.464 12.7273H574.01L581.538 34.4602H581.822L589.351 12.7273H593.896L582.319 43.9773C581.799 45.3859 581.153 46.5518 580.384 47.4751C579.615 48.4103 578.721 49.1027 577.703 49.5526C576.697 50.0024 575.56 50.2273 574.294 50.2273ZM603.617 3.63636V40H599.427V3.63636H603.617ZM622.727 40.5682C620.099 40.5682 617.832 39.9882 615.926 38.8281C614.033 37.6562 612.571 36.0227 611.541 33.9276C610.523 31.8205 610.014 29.3703 610.014 26.5767C610.014 23.7831 610.523 21.321 611.541 19.1903C612.571 17.0478 614.003 15.3788 615.838 14.1832C617.684 12.9759 619.839 12.3722 622.301 12.3722C623.721 12.3722 625.124 12.6089 626.509 13.0824C627.894 13.5559 629.154 14.3253 630.291 15.3906C631.427 16.4441 632.333 17.8409 633.007 19.581C633.682 21.321 634.02 23.4635 634.02 26.0085V27.7841H612.997V24.1619H629.758C629.758 22.6231 629.45 21.25 628.835 20.0426C628.231 18.8352 627.367 17.8823 626.243 17.1839C625.13 16.4856 623.816 16.1364 622.301 16.1364C620.632 16.1364 619.188 16.5507 617.968 17.3793C616.761 18.196 615.832 19.2614 615.181 20.5753C614.53 21.8892 614.204 23.2978 614.204 24.8011V27.2159C614.204 29.2756 614.559 31.0215 615.27 32.4538C615.992 33.8743 616.992 34.9574 618.27 35.7031C619.549 36.437 621.034 36.804 622.727 36.804C623.828 36.804 624.822 36.6501 625.71 36.3423C626.609 36.0227 627.385 35.5492 628.036 34.9219C628.687 34.2827 629.19 33.4896 629.545 32.5426L633.593 33.679C633.167 35.0521 632.451 36.2595 631.445 37.3011C630.439 38.331 629.196 39.1359 627.716 39.7159C626.237 40.2841 624.574 40.5682 622.727 40.5682ZM696.147 40L702.113 3.63636H705.664L699.698 40H696.147ZM679.598 29.9148L680.167 26.3636H707.297L706.729 29.9148H679.598ZM683.363 40L689.328 3.63636H692.88L686.914 40H683.363ZM681.729 17.2727L682.297 13.7216H709.428L708.86 17.2727H681.729ZM716.184 3.63636L726.979 34.2472H727.406L738.201 3.63636H742.817L729.465 40H724.92L711.567 3.63636H716.184ZM747.913 40V12.7273H752.104V40H747.913ZM750.044 8.18182C749.227 8.18182 748.523 7.90365 747.931 7.3473C747.351 6.79096 747.061 6.12216 747.061 5.34091C747.061 4.55966 747.351 3.89086 747.931 3.33452C748.523 2.77817 749.227 2.5 750.044 2.5C750.861 2.5 751.559 2.77817 752.139 3.33452C752.731 3.89086 753.027 4.55966 753.027 5.34091C753.027 6.12216 752.731 6.79096 752.139 7.3473C751.559 7.90365 750.861 8.18182 750.044 8.18182ZM770.858 40.5682C768.301 40.5682 766.1 39.9645 764.253 38.7571C762.406 37.5497 760.986 35.8866 759.992 33.7678C758.997 31.6489 758.5 29.2282 758.5 26.5057C758.5 23.7358 759.009 21.2914 760.027 19.1726C761.057 17.0419 762.489 15.3788 764.324 14.1832C766.171 12.9759 768.325 12.3722 770.787 12.3722C772.705 12.3722 774.433 12.7273 775.972 13.4375C777.511 14.1477 778.771 15.142 779.754 16.4205C780.736 17.6989 781.346 19.1903 781.583 20.8949H777.392C777.073 19.652 776.362 18.5511 775.262 17.5923C774.173 16.6217 772.705 16.1364 770.858 16.1364C769.225 16.1364 767.792 16.5625 766.561 17.4148C765.342 18.2552 764.389 19.4448 763.703 20.9837C763.028 22.5107 762.691 24.304 762.691 26.3636C762.691 28.4706 763.022 30.3054 763.685 31.8679C764.36 33.4304 765.307 34.6437 766.526 35.5078C767.757 36.3719 769.201 36.804 770.858 36.804C771.947 36.804 772.936 36.6146 773.823 36.2358C774.711 35.857 775.463 35.3125 776.078 34.6023C776.694 33.892 777.132 33.0398 777.392 32.0455H781.583C781.346 33.6553 780.76 35.1054 779.825 36.3956C778.901 37.674 777.676 38.692 776.149 39.4496C774.634 40.1953 772.87 40.5682 770.858 40.5682ZM798.788 40.5682C796.326 40.5682 794.165 39.9822 792.307 38.8104C790.46 37.6385 789.016 35.9991 787.975 33.892C786.945 31.785 786.43 29.3229 786.43 26.5057C786.43 23.6648 786.945 21.1849 787.975 19.0661C789.016 16.9472 790.46 15.3018 792.307 14.13C794.165 12.9581 796.326 12.3722 798.788 12.3722C801.25 12.3722 803.404 12.9581 805.251 14.13C807.109 15.3018 808.553 16.9472 809.583 19.0661C810.625 21.1849 811.146 23.6648 811.146 26.5057C811.146 29.3229 810.625 31.785 809.583 33.892C808.553 35.9991 807.109 37.6385 805.251 38.8104C803.404 39.9822 801.25 40.5682 798.788 40.5682ZM798.788 36.804C800.658 36.804 802.197 36.3246 803.404 35.3658C804.612 34.407 805.505 33.1463 806.085 31.5838C806.665 30.0213 806.955 28.3286 806.955 26.5057C806.955 24.6828 806.665 22.9841 806.085 21.4098C805.505 19.8355 804.612 18.563 803.404 17.5923C802.197 16.6217 800.658 16.1364 798.788 16.1364C796.918 16.1364 795.379 16.6217 794.171 17.5923C792.964 18.563 792.07 19.8355 791.49 21.4098C790.91 22.9841 790.62 24.6828 790.62 26.5057C790.62 28.3286 790.91 30.0213 791.49 31.5838C792.07 33.1463 792.964 34.407 794.171 35.3658C795.379 36.3246 796.918 36.804 798.788 36.804ZM821.733 3.63636V40H817.542V3.63636H821.733ZM840.487 40.5682C838.025 40.5682 835.865 39.9822 834.006 38.8104C832.16 37.6385 830.715 35.9991 829.674 33.892C828.644 31.785 828.129 29.3229 828.129 26.5057C828.129 23.6648 828.644 21.1849 829.674 19.0661C830.715 16.9472 832.16 15.3018 834.006 14.13C835.865 12.9581 838.025 12.3722 840.487 12.3722C842.949 12.3722 845.104 12.9581 846.95 14.13C848.809 15.3018 850.253 16.9472 851.282 19.0661C852.324 21.1849 852.845 23.6648 852.845 26.5057C852.845 29.3229 852.324 31.785 851.282 33.892C850.253 35.9991 848.809 37.6385 846.95 38.8104C845.104 39.9822 842.949 40.5682 840.487 40.5682ZM840.487 36.804C842.357 36.804 843.896 36.3246 845.104 35.3658C846.311 34.407 847.205 33.1463 847.785 31.5838C848.365 30.0213 848.655 28.3286 848.655 26.5057C848.655 24.6828 848.365 22.9841 847.785 21.4098C847.205 19.8355 846.311 18.563 845.104 17.5923C843.896 16.6217 842.357 16.1364 840.487 16.1364C838.617 16.1364 837.078 16.6217 835.871 17.5923C834.663 18.563 833.769 19.8355 833.189 21.4098C832.609 22.9841 832.319 24.6828 832.319 26.5057C832.319 28.3286 832.609 30.0213 833.189 31.5838C833.769 33.1463 834.663 34.407 835.871 35.3658C837.078 36.3246 838.617 36.804 840.487 36.804ZM879.696 12.7273C879.483 10.928 878.619 9.53125 877.104 8.53693C875.589 7.54261 873.73 7.04545 871.528 7.04545C869.919 7.04545 868.51 7.30587 867.303 7.8267C866.107 8.34754 865.172 9.06368 864.497 9.97514C863.834 10.8866 863.503 11.9223 863.503 13.0824C863.503 14.053 863.734 14.8875 864.195 15.5859C864.669 16.2725 865.272 16.8466 866.006 17.3082C866.74 17.758 867.51 18.1309 868.315 18.4268C869.12 18.7109 869.859 18.9418 870.534 19.1193L874.227 20.1136C875.174 20.3622 876.228 20.7055 877.388 21.1435C878.56 21.5814 879.678 22.1792 880.744 22.9368C881.821 23.6825 882.709 24.6413 883.407 25.8132C884.105 26.9851 884.455 28.4233 884.455 30.1278C884.455 32.0928 883.94 33.8684 882.91 35.4545C881.892 37.0407 880.4 38.3014 878.435 39.2365C876.482 40.1716 874.109 40.6392 871.315 40.6392C868.711 40.6392 866.456 40.219 864.55 39.3786C862.656 38.5381 861.165 37.3662 860.076 35.8629C858.999 34.3596 858.389 32.6136 858.247 30.625H862.793C862.911 31.9981 863.373 33.1345 864.178 34.0341C864.994 34.9219 866.024 35.5848 867.267 36.0227C868.522 36.4489 869.871 36.6619 871.315 36.6619C872.996 36.6619 874.505 36.3897 875.843 35.8452C877.181 35.2888 878.24 34.5194 879.021 33.5369C879.803 32.5426 880.193 31.3826 880.193 30.0568C880.193 28.8494 879.856 27.867 879.181 27.1094C878.506 26.3518 877.619 25.7363 876.518 25.2628C875.417 24.7893 874.227 24.375 872.949 24.0199L868.474 22.7415C865.634 21.9247 863.384 20.7588 861.727 19.2436C860.07 17.7285 859.241 15.7457 859.241 13.2955C859.241 11.2595 859.792 9.4839 860.893 7.96875C862.005 6.44176 863.497 5.25805 865.367 4.41761C867.249 3.56534 869.35 3.1392 871.67 3.1392C874.014 3.1392 876.098 3.55942 877.92 4.39986C879.743 5.22845 881.188 6.36482 882.253 7.80895C883.33 9.25308 883.898 10.8925 883.957 12.7273H879.696ZM902.987 12.7273V16.2784H888.854V12.7273H902.987ZM892.973 6.19318H897.163V32.1875C897.163 33.3712 897.335 34.259 897.678 34.8509C898.033 35.4309 898.483 35.8215 899.028 36.0227C899.584 36.2121 900.17 36.3068 900.785 36.3068C901.247 36.3068 901.626 36.2831 901.922 36.2358C902.218 36.1766 902.454 36.1293 902.632 36.0938L903.484 39.858C903.2 39.9645 902.804 40.071 902.295 40.1776C901.786 40.2959 901.14 40.3551 900.359 40.3551C899.175 40.3551 898.015 40.1006 896.879 39.5916C895.755 39.0826 894.819 38.3073 894.074 37.2656C893.34 36.224 892.973 34.91 892.973 33.3239V6.19318ZM911.989 50.2273C911.279 50.2273 910.646 50.1681 910.089 50.0497C909.533 49.9432 909.148 49.8366 908.935 49.7301L910.001 46.0369C911.019 46.2973 911.918 46.392 912.699 46.321C913.481 46.25 914.173 45.9008 914.777 45.2734C915.392 44.6579 915.955 43.6577 916.464 42.2727L917.245 40.142L907.16 12.7273H911.705L919.233 34.4602H919.518L927.046 12.7273H931.591L920.015 43.9773C919.494 45.3859 918.849 46.5518 918.079 47.4751C917.31 48.4103 916.416 49.1027 915.398 49.5526C914.392 50.0024 913.256 50.2273 911.989 50.2273ZM941.313 3.63636V40H937.122V3.63636H941.313ZM960.422 40.5682C957.794 40.5682 955.528 39.9882 953.622 38.8281C951.728 37.6562 950.266 36.0227 949.236 33.9276C948.218 31.8205 947.709 29.3703 947.709 26.5767C947.709 23.7831 948.218 21.321 949.236 19.1903C950.266 17.0478 951.698 15.3788 953.533 14.1832C955.38 12.9759 957.534 12.3722 959.996 12.3722C961.417 12.3722 962.819 12.6089 964.204 13.0824C965.589 13.5559 966.85 14.3253 967.986 15.3906C969.123 16.4441 970.028 17.8409 970.703 19.581C971.377 21.321 971.715 23.4635 971.715 26.0085V27.7841H950.692V24.1619H967.453C967.453 22.6231 967.146 21.25 966.53 20.0426C965.926 18.8352 965.062 17.8823 963.938 17.1839C962.825 16.4856 961.511 16.1364 959.996 16.1364C958.327 16.1364 956.883 16.5507 955.664 17.3793C954.456 18.196 953.527 19.2614 952.876 20.5753C952.225 21.8892 951.9 23.2978 951.9 24.8011V27.2159C951.9 29.2756 952.255 31.0215 952.965 32.4538C953.687 33.8743 954.687 34.9574 955.966 35.7031C957.244 36.437 958.73 36.804 960.422 36.804C961.523 36.804 962.517 36.6501 963.405 36.3423C964.305 36.0227 965.08 35.5492 965.731 34.9219C966.382 34.2827 966.885 33.4896 967.24 32.5426L971.289 33.679C970.863 35.0521 970.146 36.2595 969.14 37.3011C968.134 38.331 966.891 39.1359 965.412 39.7159C963.932 40.2841 962.269 40.5682 960.422 40.5682ZM1033.84 40L1039.81 3.63636H1043.36L1037.39 40H1033.84ZM1017.29 29.9148L1017.86 26.3636H1044.99L1044.42 29.9148H1017.29ZM1021.06 40L1027.02 3.63636H1030.57L1024.61 40H1021.06ZM1019.42 17.2727L1019.99 13.7216H1047.12L1046.56 17.2727H1019.42ZM1053.88 3.63636L1064.67 34.2472H1065.1L1075.9 3.63636H1080.51L1067.16 40H1062.62L1049.26 3.63636H1053.88ZM1085.61 40V12.7273H1089.8V40H1085.61ZM1087.74 8.18182C1086.92 8.18182 1086.22 7.90365 1085.63 7.3473C1085.05 6.79096 1084.76 6.12216 1084.76 5.34091C1084.76 4.55966 1085.05 3.89086 1085.63 3.33452C1086.22 2.77817 1086.92 2.5 1087.74 2.5C1088.56 2.5 1089.25 2.77817 1089.83 3.33452C1090.43 3.89086 1090.72 4.55966 1090.72 5.34091C1090.72 6.12216 1090.43 6.79096 1089.83 7.3473C1089.25 7.90365 1088.56 8.18182 1087.74 8.18182ZM1108.55 40.5682C1106 40.5682 1103.79 39.9645 1101.95 38.7571C1100.1 37.5497 1098.68 35.8866 1097.69 33.7678C1096.69 31.6489 1096.2 29.2282 1096.2 26.5057C1096.2 23.7358 1096.7 21.2914 1097.72 19.1726C1098.75 17.0419 1100.18 15.3788 1102.02 14.1832C1103.87 12.9759 1106.02 12.3722 1108.48 12.3722C1110.4 12.3722 1112.13 12.7273 1113.67 13.4375C1115.21 14.1477 1116.47 15.142 1117.45 16.4205C1118.43 17.6989 1119.04 19.1903 1119.28 20.8949H1115.09C1114.77 19.652 1114.06 18.5511 1112.96 17.5923C1111.87 16.6217 1110.4 16.1364 1108.55 16.1364C1106.92 16.1364 1105.49 16.5625 1104.26 17.4148C1103.04 18.2552 1102.08 19.4448 1101.4 20.9837C1100.72 22.5107 1100.39 24.304 1100.39 26.3636C1100.39 28.4706 1100.72 30.3054 1101.38 31.8679C1102.05 33.4304 1103 34.6437 1104.22 35.5078C1105.45 36.3719 1106.9 36.804 1108.55 36.804C1109.64 36.804 1110.63 36.6146 1111.52 36.2358C1112.41 35.857 1113.16 35.3125 1113.77 34.6023C1114.39 33.892 1114.83 33.0398 1115.09 32.0455H1119.28C1119.04 33.6553 1118.46 35.1054 1117.52 36.3956C1116.6 37.674 1115.37 38.692 1113.84 39.4496C1112.33 40.1953 1110.57 40.5682 1108.55 40.5682ZM1136.48 40.5682C1134.02 40.5682 1131.86 39.9822 1130 38.8104C1128.16 37.6385 1126.71 35.9991 1125.67 33.892C1124.64 31.785 1124.13 29.3229 1124.13 26.5057C1124.13 23.6648 1124.64 21.1849 1125.67 19.0661C1126.71 16.9472 1128.16 15.3018 1130 14.13C1131.86 12.9581 1134.02 12.3722 1136.48 12.3722C1138.95 12.3722 1141.1 12.9581 1142.95 14.13C1144.8 15.3018 1146.25 16.9472 1147.28 19.0661C1148.32 21.1849 1148.84 23.6648 1148.84 26.5057C1148.84 29.3229 1148.32 31.785 1147.28 33.892C1146.25 35.9991 1144.8 37.6385 1142.95 38.8104C1141.1 39.9822 1138.95 40.5682 1136.48 40.5682ZM1136.48 36.804C1138.35 36.804 1139.89 36.3246 1141.1 35.3658C1142.31 34.407 1143.2 33.1463 1143.78 31.5838C1144.36 30.0213 1144.65 28.3286 1144.65 26.5057C1144.65 24.6828 1144.36 22.9841 1143.78 21.4098C1143.2 19.8355 1142.31 18.563 1141.1 17.5923C1139.89 16.6217 1138.35 16.1364 1136.48 16.1364C1134.61 16.1364 1133.07 16.6217 1131.87 17.5923C1130.66 18.563 1129.77 19.8355 1129.19 21.4098C1128.61 22.9841 1128.32 24.6828 1128.32 26.5057C1128.32 28.3286 1128.61 30.0213 1129.19 31.5838C1129.77 33.1463 1130.66 34.407 1131.87 35.3658C1133.07 36.3246 1134.61 36.804 1136.48 36.804ZM1159.43 3.63636V40H1155.24V3.63636H1159.43ZM1178.18 40.5682C1175.72 40.5682 1173.56 39.9822 1171.7 38.8104C1169.85 37.6385 1168.41 35.9991 1167.37 33.892C1166.34 31.785 1165.82 29.3229 1165.82 26.5057C1165.82 23.6648 1166.34 21.1849 1167.37 19.0661C1168.41 16.9472 1169.85 15.3018 1171.7 14.13C1173.56 12.9581 1175.72 12.3722 1178.18 12.3722C1180.64 12.3722 1182.8 12.9581 1184.65 14.13C1186.5 15.3018 1187.95 16.9472 1188.98 19.0661C1190.02 21.1849 1190.54 23.6648 1190.54 26.5057C1190.54 29.3229 1190.02 31.785 1188.98 33.892C1187.95 35.9991 1186.5 37.6385 1184.65 38.8104C1182.8 39.9822 1180.64 40.5682 1178.18 40.5682ZM1178.18 36.804C1180.05 36.804 1181.59 36.3246 1182.8 35.3658C1184.01 34.407 1184.9 33.1463 1185.48 31.5838C1186.06 30.0213 1186.35 28.3286 1186.35 26.5057C1186.35 24.6828 1186.06 22.9841 1185.48 21.4098C1184.9 19.8355 1184.01 18.563 1182.8 17.5923C1181.59 16.6217 1180.05 16.1364 1178.18 16.1364C1176.31 16.1364 1174.77 16.6217 1173.57 17.5923C1172.36 18.563 1171.46 19.8355 1170.88 21.4098C1170.3 22.9841 1170.01 24.6828 1170.01 26.5057C1170.01 28.3286 1170.3 30.0213 1170.88 31.5838C1171.46 33.1463 1172.36 34.407 1173.57 35.3658C1174.77 36.3246 1176.31 36.804 1178.18 36.804ZM1217.39 12.7273C1217.18 10.928 1216.31 9.53125 1214.8 8.53693C1213.28 7.54261 1211.43 7.04545 1209.22 7.04545C1207.61 7.04545 1206.21 7.30587 1205 7.8267C1203.8 8.34754 1202.87 9.06368 1202.19 9.97514C1201.53 10.8866 1201.2 11.9223 1201.2 13.0824C1201.2 14.053 1201.43 14.8875 1201.89 15.5859C1202.36 16.2725 1202.97 16.8466 1203.7 17.3082C1204.44 17.758 1205.21 18.1309 1206.01 18.4268C1206.81 18.7109 1207.55 18.9418 1208.23 19.1193L1211.92 20.1136C1212.87 20.3622 1213.92 20.7055 1215.08 21.1435C1216.25 21.5814 1217.37 22.1792 1218.44 22.9368C1219.52 23.6825 1220.4 24.6413 1221.1 25.8132C1221.8 26.9851 1222.15 28.4233 1222.15 30.1278C1222.15 32.0928 1221.63 33.8684 1220.61 35.4545C1219.59 37.0407 1218.1 38.3014 1216.13 39.2365C1214.18 40.1716 1211.8 40.6392 1209.01 40.6392C1206.41 40.6392 1204.15 40.219 1202.25 39.3786C1200.35 38.5381 1198.86 37.3662 1197.77 35.8629C1196.69 34.3596 1196.08 32.6136 1195.94 30.625H1200.49C1200.61 31.9981 1201.07 33.1345 1201.87 34.0341C1202.69 34.9219 1203.72 35.5848 1204.96 36.0227C1206.22 36.4489 1207.57 36.6619 1209.01 36.6619C1210.69 36.6619 1212.2 36.3897 1213.54 35.8452C1214.88 35.2888 1215.94 34.5194 1216.72 33.5369C1217.5 32.5426 1217.89 31.3826 1217.89 30.0568C1217.89 28.8494 1217.55 27.867 1216.88 27.1094C1216.2 26.3518 1215.31 25.7363 1214.21 25.2628C1213.11 24.7893 1211.92 24.375 1210.64 24.0199L1206.17 22.7415C1203.33 21.9247 1201.08 20.7588 1199.42 19.2436C1197.77 17.7285 1196.94 15.7457 1196.94 13.2955C1196.94 11.2595 1197.49 9.4839 1198.59 7.96875C1199.7 6.44176 1201.19 5.25805 1203.06 4.41761C1204.94 3.56534 1207.05 3.1392 1209.37 3.1392C1211.71 3.1392 1213.79 3.55942 1215.62 4.39986C1217.44 5.22845 1218.88 6.36482 1219.95 7.80895C1221.03 9.25308 1221.59 10.8925 1221.65 12.7273H1217.39ZM1240.68 12.7273V16.2784H1226.55V12.7273H1240.68ZM1230.67 6.19318H1234.86V32.1875C1234.86 33.3712 1235.03 34.259 1235.37 34.8509C1235.73 35.4309 1236.18 35.8215 1236.72 36.0227C1237.28 36.2121 1237.87 36.3068 1238.48 36.3068C1238.94 36.3068 1239.32 36.2831 1239.62 36.2358C1239.91 36.1766 1240.15 36.1293 1240.33 36.0938L1241.18 39.858C1240.9 39.9645 1240.5 40.071 1239.99 40.1776C1239.48 40.2959 1238.84 40.3551 1238.05 40.3551C1236.87 40.3551 1235.71 40.1006 1234.57 39.5916C1233.45 39.0826 1232.51 38.3073 1231.77 37.2656C1231.04 36.224 1230.67 34.91 1230.67 33.3239V6.19318ZM1249.68 50.2273C1248.97 50.2273 1248.34 50.1681 1247.78 50.0497C1247.23 49.9432 1246.84 49.8366 1246.63 49.7301L1247.7 46.0369C1248.71 46.2973 1249.61 46.392 1250.39 46.321C1251.18 46.25 1251.87 45.9008 1252.47 45.2734C1253.09 44.6579 1253.65 43.6577 1254.16 42.2727L1254.94 40.142L1244.85 12.7273H1249.4L1256.93 34.4602H1257.21L1264.74 12.7273H1269.29L1257.71 43.9773C1257.19 45.3859 1256.54 46.5518 1255.77 47.4751C1255.01 48.4103 1254.11 49.1027 1253.09 49.5526C1252.09 50.0024 1250.95 50.2273 1249.68 50.2273ZM1279.01 3.63636V40H1274.82V3.63636H1279.01ZM1298.12 40.5682C1295.49 40.5682 1293.22 39.9882 1291.32 38.8281C1289.42 37.6562 1287.96 36.0227 1286.93 33.9276C1285.91 31.8205 1285.4 29.3703 1285.4 26.5767C1285.4 23.7831 1285.91 21.321 1286.93 19.1903C1287.96 17.0478 1289.39 15.3788 1291.23 14.1832C1293.07 12.9759 1295.23 12.3722 1297.69 12.3722C1299.11 12.3722 1300.51 12.6089 1301.9 13.0824C1303.28 13.5559 1304.55 14.3253 1305.68 15.3906C1306.82 16.4441 1307.72 17.8409 1308.4 19.581C1309.07 21.321 1309.41 23.4635 1309.41 26.0085V27.7841H1288.39V24.1619H1305.15C1305.15 22.6231 1304.84 21.25 1304.23 20.0426C1303.62 18.8352 1302.76 17.8823 1301.63 17.1839C1300.52 16.4856 1299.21 16.1364 1297.69 16.1364C1296.02 16.1364 1294.58 16.5507 1293.36 17.3793C1292.15 18.196 1291.22 19.2614 1290.57 20.5753C1289.92 21.8892 1289.59 23.2978 1289.59 24.8011V27.2159C1289.59 29.2756 1289.95 31.0215 1290.66 32.4538C1291.38 33.8743 1292.38 34.9574 1293.66 35.7031C1294.94 36.437 1296.42 36.804 1298.12 36.804C1299.22 36.804 1300.21 36.6501 1301.1 36.3423C1302 36.0227 1302.78 35.5492 1303.43 34.9219C1304.08 34.2827 1304.58 33.4896 1304.94 32.5426L1308.98 33.679C1308.56 35.0521 1307.84 36.2595 1306.84 37.3011C1305.83 38.331 1304.59 39.1359 1303.11 39.7159C1301.63 40.2841 1299.96 40.5682 1298.12 40.5682ZM1371.54 40L1377.5 3.63636H1381.05L1375.09 40H1371.54ZM1354.99 29.9148L1355.56 26.3636H1382.69L1382.12 29.9148H1354.99ZM1358.75 40L1364.72 3.63636H1368.27L1362.3 40H1358.75ZM1357.12 17.2727L1357.69 13.7216H1384.82L1384.25 17.2727H1357.12ZM1391.57 3.63636L1402.37 34.2472H1402.8L1413.59 3.63636H1418.21L1404.86 40H1400.31L1386.96 3.63636H1391.57ZM1423.3 40V12.7273H1427.49V40H1423.3ZM1425.43 8.18182C1424.62 8.18182 1423.91 7.90365 1423.32 7.3473C1422.74 6.79096 1422.45 6.12216 1422.45 5.34091C1422.45 4.55966 1422.74 3.89086 1423.32 3.33452C1423.91 2.77817 1424.62 2.5 1425.43 2.5C1426.25 2.5 1426.95 2.77817 1427.53 3.33452C1428.12 3.89086 1428.42 4.55966 1428.42 5.34091C1428.42 6.12216 1428.12 6.79096 1427.53 7.3473C1426.95 7.90365 1426.25 8.18182 1425.43 8.18182ZM1446.25 40.5682C1443.69 40.5682 1441.49 39.9645 1439.64 38.7571C1437.8 37.5497 1436.38 35.8866 1435.38 33.7678C1434.39 31.6489 1433.89 29.2282 1433.89 26.5057C1433.89 23.7358 1434.4 21.2914 1435.42 19.1726C1436.45 17.0419 1437.88 15.3788 1439.71 14.1832C1441.56 12.9759 1443.72 12.3722 1446.18 12.3722C1448.1 12.3722 1449.82 12.7273 1451.36 13.4375C1452.9 14.1477 1454.16 15.142 1455.14 16.4205C1456.13 17.6989 1456.74 19.1903 1456.97 20.8949H1452.78C1452.46 19.652 1451.75 18.5511 1450.65 17.5923C1449.56 16.6217 1448.1 16.1364 1446.25 16.1364C1444.62 16.1364 1443.18 16.5625 1441.95 17.4148C1440.73 18.2552 1439.78 19.4448 1439.09 20.9837C1438.42 22.5107 1438.08 24.304 1438.08 26.3636C1438.08 28.4706 1438.41 30.3054 1439.08 31.8679C1439.75 33.4304 1440.7 34.6437 1441.92 35.5078C1443.15 36.3719 1444.59 36.804 1446.25 36.804C1447.34 36.804 1448.33 36.6146 1449.21 36.2358C1450.1 35.857 1450.85 35.3125 1451.47 34.6023C1452.08 33.892 1452.52 33.0398 1452.78 32.0455H1456.97C1456.74 33.6553 1456.15 35.1054 1455.22 36.3956C1454.29 37.674 1453.07 38.692 1451.54 39.4496C1450.02 40.1953 1448.26 40.5682 1446.25 40.5682ZM1474.18 40.5682C1471.72 40.5682 1469.56 39.9822 1467.7 38.8104C1465.85 37.6385 1464.41 35.9991 1463.37 33.892C1462.34 31.785 1461.82 29.3229 1461.82 26.5057C1461.82 23.6648 1462.34 21.1849 1463.37 19.0661C1464.41 16.9472 1465.85 15.3018 1467.7 14.13C1469.56 12.9581 1471.72 12.3722 1474.18 12.3722C1476.64 12.3722 1478.79 12.9581 1480.64 14.13C1482.5 15.3018 1483.94 16.9472 1484.97 19.0661C1486.02 21.1849 1486.54 23.6648 1486.54 26.5057C1486.54 29.3229 1486.02 31.785 1484.97 33.892C1483.94 35.9991 1482.5 37.6385 1480.64 38.8104C1478.79 39.9822 1476.64 40.5682 1474.18 40.5682ZM1474.18 36.804C1476.05 36.804 1477.59 36.3246 1478.79 35.3658C1480 34.407 1480.9 33.1463 1481.48 31.5838C1482.06 30.0213 1482.35 28.3286 1482.35 26.5057C1482.35 24.6828 1482.06 22.9841 1481.48 21.4098C1480.9 19.8355 1480 18.563 1478.79 17.5923C1477.59 16.6217 1476.05 16.1364 1474.18 16.1364C1472.31 16.1364 1470.77 16.6217 1469.56 17.5923C1468.35 18.563 1467.46 19.8355 1466.88 21.4098C1466.3 22.9841 1466.01 24.6828 1466.01 26.5057C1466.01 28.3286 1466.3 30.0213 1466.88 31.5838C1467.46 33.1463 1468.35 34.407 1469.56 35.3658C1470.77 36.3246 1472.31 36.804 1474.18 36.804ZM1497.12 3.63636V40H1492.93V3.63636H1497.12ZM1515.88 40.5682C1513.42 40.5682 1511.26 39.9822 1509.4 38.8104C1507.55 37.6385 1506.11 35.9991 1505.06 33.892C1504.03 31.785 1503.52 29.3229 1503.52 26.5057C1503.52 23.6648 1504.03 21.1849 1505.06 19.0661C1506.11 16.9472 1507.55 15.3018 1509.4 14.13C1511.26 12.9581 1513.42 12.3722 1515.88 12.3722C1518.34 12.3722 1520.49 12.9581 1522.34 14.13C1524.2 15.3018 1525.64 16.9472 1526.67 19.0661C1527.71 21.1849 1528.24 23.6648 1528.24 26.5057C1528.24 29.3229 1527.71 31.785 1526.67 33.892C1525.64 35.9991 1524.2 37.6385 1522.34 38.8104C1520.49 39.9822 1518.34 40.5682 1515.88 40.5682ZM1515.88 36.804C1517.75 36.804 1519.29 36.3246 1520.49 35.3658C1521.7 34.407 1522.6 33.1463 1523.18 31.5838C1523.76 30.0213 1524.05 28.3286 1524.05 26.5057C1524.05 24.6828 1523.76 22.9841 1523.18 21.4098C1522.6 19.8355 1521.7 18.563 1520.49 17.5923C1519.29 16.6217 1517.75 16.1364 1515.88 16.1364C1514.01 16.1364 1512.47 16.6217 1511.26 17.5923C1510.05 18.563 1509.16 19.8355 1508.58 21.4098C1508 22.9841 1507.71 24.6828 1507.71 26.5057C1507.71 28.3286 1508 30.0213 1508.58 31.5838C1509.16 33.1463 1510.05 34.407 1511.26 35.3658C1512.47 36.3246 1514.01 36.804 1515.88 36.804ZM1555.09 12.7273C1554.87 10.928 1554.01 9.53125 1552.49 8.53693C1550.98 7.54261 1549.12 7.04545 1546.92 7.04545C1545.31 7.04545 1543.9 7.30587 1542.69 7.8267C1541.5 8.34754 1540.56 9.06368 1539.89 9.97514C1539.22 10.8866 1538.89 11.9223 1538.89 13.0824C1538.89 14.053 1539.12 14.8875 1539.59 15.5859C1540.06 16.2725 1540.66 16.8466 1541.4 17.3082C1542.13 17.758 1542.9 18.1309 1543.71 18.4268C1544.51 18.7109 1545.25 18.9418 1545.92 19.1193L1549.62 20.1136C1550.56 20.3622 1551.62 20.7055 1552.78 21.1435C1553.95 21.5814 1555.07 22.1792 1556.13 22.9368C1557.21 23.6825 1558.1 24.6413 1558.8 25.8132C1559.5 26.9851 1559.85 28.4233 1559.85 30.1278C1559.85 32.0928 1559.33 33.8684 1558.3 35.4545C1557.28 37.0407 1555.79 38.3014 1553.83 39.2365C1551.87 40.1716 1549.5 40.6392 1546.71 40.6392C1544.1 40.6392 1541.85 40.219 1539.94 39.3786C1538.05 38.5381 1536.56 37.3662 1535.47 35.8629C1534.39 34.3596 1533.78 32.6136 1533.64 30.625H1538.18C1538.3 31.9981 1538.76 33.1345 1539.57 34.0341C1540.38 34.9219 1541.41 35.5848 1542.66 36.0227C1543.91 36.4489 1545.26 36.6619 1546.71 36.6619C1548.39 36.6619 1549.9 36.3897 1551.23 35.8452C1552.57 35.2888 1553.63 34.5194 1554.41 33.5369C1555.19 32.5426 1555.58 31.3826 1555.58 30.0568C1555.58 28.8494 1555.25 27.867 1554.57 27.1094C1553.9 26.3518 1553.01 25.7363 1551.91 25.2628C1550.81 24.7893 1549.62 24.375 1548.34 24.0199L1543.87 22.7415C1541.02 21.9247 1538.78 20.7588 1537.12 19.2436C1535.46 17.7285 1534.63 15.7457 1534.63 13.2955C1534.63 11.2595 1535.18 9.4839 1536.28 7.96875C1537.4 6.44176 1538.89 5.25805 1540.76 4.41761C1542.64 3.56534 1544.74 3.1392 1547.06 3.1392C1549.4 3.1392 1551.49 3.55942 1553.31 4.39986C1555.13 5.22845 1556.58 6.36482 1557.64 7.80895C1558.72 9.25308 1559.29 10.8925 1559.35 12.7273H1555.09ZM1578.38 12.7273V16.2784H1564.24V12.7273H1578.38ZM1568.36 6.19318H1572.55V32.1875C1572.55 33.3712 1572.73 34.259 1573.07 34.8509C1573.42 35.4309 1573.87 35.8215 1574.42 36.0227C1574.97 36.2121 1575.56 36.3068 1576.18 36.3068C1576.64 36.3068 1577.02 36.2831 1577.31 36.2358C1577.61 36.1766 1577.84 36.1293 1578.02 36.0938L1578.87 39.858C1578.59 39.9645 1578.19 40.071 1577.69 40.1776C1577.18 40.2959 1576.53 40.3551 1575.75 40.3551C1574.57 40.3551 1573.41 40.1006 1572.27 39.5916C1571.15 39.0826 1570.21 38.3073 1569.46 37.2656C1568.73 36.224 1568.36 34.91 1568.36 33.3239V6.19318ZM1587.38 50.2273C1586.67 50.2273 1586.04 50.1681 1585.48 50.0497C1584.92 49.9432 1584.54 49.8366 1584.33 49.7301L1585.39 46.0369C1586.41 46.2973 1587.31 46.392 1588.09 46.321C1588.87 46.25 1589.56 45.9008 1590.17 45.2734C1590.78 44.6579 1591.35 43.6577 1591.85 42.2727L1592.64 40.142L1582.55 12.7273H1587.1L1594.62 34.4602H1594.91L1602.44 12.7273H1606.98L1595.41 43.9773C1594.88 45.3859 1594.24 46.5518 1593.47 47.4751C1592.7 48.4103 1591.81 49.1027 1590.79 49.5526C1589.78 50.0024 1588.65 50.2273 1587.38 50.2273ZM1616.7 3.63636V40H1612.51V3.63636H1616.7ZM1635.81 40.5682C1633.19 40.5682 1630.92 39.9882 1629.01 38.8281C1627.12 37.6562 1625.66 36.0227 1624.63 33.9276C1623.61 31.8205 1623.1 29.3703 1623.1 26.5767C1623.1 23.7831 1623.61 21.321 1624.63 19.1903C1625.66 17.0478 1627.09 15.3788 1628.92 14.1832C1630.77 12.9759 1632.92 12.3722 1635.39 12.3722C1636.81 12.3722 1638.21 12.6089 1639.59 13.0824C1640.98 13.5559 1642.24 14.3253 1643.38 15.3906C1644.51 16.4441 1645.42 17.8409 1646.09 19.581C1646.77 21.321 1647.11 23.4635 1647.11 26.0085V27.7841H1626.08V24.1619H1642.84C1642.84 22.6231 1642.54 21.25 1641.92 20.0426C1641.32 18.8352 1640.45 17.8823 1639.33 17.1839C1638.22 16.4856 1636.9 16.1364 1635.39 16.1364C1633.72 16.1364 1632.27 16.5507 1631.05 17.3793C1629.85 18.196 1628.92 19.2614 1628.27 20.5753C1627.62 21.8892 1627.29 23.2978 1627.29 24.8011V27.2159C1627.29 29.2756 1627.65 31.0215 1628.36 32.4538C1629.08 33.8743 1630.08 34.9574 1631.36 35.7031C1632.63 36.437 1634.12 36.804 1635.81 36.804C1636.91 36.804 1637.91 36.6501 1638.8 36.3423C1639.7 36.0227 1640.47 35.5492 1641.12 34.9219C1641.77 34.2827 1642.28 33.4896 1642.63 32.5426L1646.68 33.679C1646.25 35.0521 1645.54 36.2595 1644.53 37.3011C1643.52 38.331 1642.28 39.1359 1640.8 39.7159C1639.32 40.2841 1637.66 40.5682 1635.81 40.5682Z" fill="#D9D9D9" fill-opacity="0.1" shape-rendering="crispEdges"/>
</g>
<defs>
<filter id="filter0_bd_16_421" x="-10.7922" y="-12.5" width="1672.9" height="77.7273" filterUnits="userSpaceOnUse" color-interpolation-filters="sRGB">
<feFlood flood-opacity="0" result="BackgroundImageFix"/>
<feGaussianBlur in="BackgroundImageFix" stdDeviation="7.5"/>
<feComposite in2="SourceAlpha" operator="in" result="effect1_backgroundBlur_16_421"/>
<feColorMatrix in="SourceAlpha" type="matrix" values="0 0 0 0 0 0 0 0 0 0 0 0 0 0 0 0 0 0 127 0" result="hardAlpha"/>
<feOffset dy="2"/>
<feGaussianBlur stdDeviation="2"/>
<feComposite in2="hardAlpha" operator="out"/>
<feColorMatrix type="matrix" values="0 0 0 0 1 0 0 0 0 1 0 0 0 0 1 0 0 0 1 0"/>
<feBlend mode="normal" in2="effect1_backgroundBlur_16_421" result="effect2_dropShadow_16_421"/>
<feBlend mode="normal" in="SourceGraphic" in2="effect2_dropShadow_16_421" result="shape"/>
</filter>
</defs>
</svg>
